# xmcd CD database file
#
# Track frame offsets:
#	150
#	19569
#	41325
#	56075
#	78462
#	97993
#	125169
#	163025
#	187395
#	219398
#	240368
#
# Disc length: 3735 seconds
#
# Revision: 0
# Processed by: cddbd v1.5PL3 Copyright (c) Steve Scherf et al.
# Submitted via: CDex 1.51
#
DISCID=900e950b
DTITLE=Stevie Ray Vaughan - Peace in the Valley
DYEAR=1990
DGENRE=Blues
TTITLE0=Tightrope
TTITLE1=The things I used to do
TTITLE2=Let me love you baby
TTITLE3=Leave my little girl alone
TTITLE4=(Look at) little sister
TTITLE5=Wall of denial
TTITLE6=Riviera paradise
TTITLE7=Superstition
TTITLE8=Couldn't stand the weather
TTITLE9=Crossfire
TTITLE10=Voodoo chile (slight return)
EXTD=YEAR: 1990
EXTT0=
EXTT1=
EXTT2=
EXTT3=
EXTT4=
EXTT5=
EXTT6=
EXTT7=
EXTT8=
EXTT9=
EXTT10=
PLAYORDER=
